<?xml version="1.0" encoding="UTF-8"?>
<svg xmlns="http://www.w3.org/2000/svg" viewBox="0 0 165 165">
  <defs>
    <linearGradient id="sunGrad" x1="0" y1="0" x2="1" y2="1">
      <stop offset="0" stop-color="#FDE047"/>
      <stop offset="0.55" stop-color="#FB923C"/>
      <stop offset="1" stop-color="#EA580C"/>
    </linearGradient>
    <linearGradient id="hillBackGrad" x1="0" y1="0" x2="0" y2="1">
      <stop offset="0" stop-color="#22C55E"/>
      <stop offset="1" stop-color="#15803D"/>
    </linearGradient>
    <linearGradient id="hillFrontGrad" x1="0" y1="0" x2="0" y2="1">
      <stop offset="0" stop-color="#4ADE80"/>
      <stop offset="1" stop-color="#16A34A"/>
    </linearGradient>
    <clipPath id="squircleClip">
      <path d="m140.58,9.06h0c-37.78-12.09-78.38-12.09-116.16,0h0c-7.3,2.34-13.02,8.05-15.35,15.35h0c-12.09,37.78-12.09,78.39,0,116.16h0c2.34,7.3,8.05,13.02,15.35,15.35h0c37.78,12.09,78.38,12.09,116.16,0h0c7.3-2.34,13.02-8.05,15.35-15.35h0c12.09-37.78,12.09-78.39,0-116.16h0c-2.34-7.3-8.05-13.02-15.35-15.35Z"/>
    </clipPath>
  </defs>
  <g clip-path="url(#squircleClip)">
    <g transform="scale(1.03125)">
      <circle cx="100" cy="45" r="28" fill="url(#sunGrad)"/>
      <ellipse cx="35" cy="150" rx="85" ry="48" fill="url(#hillBackGrad)"/>
      <ellipse cx="130" cy="158" rx="95" ry="46" fill="url(#hillFrontGrad)"/>
      <rect x="88" y="78" width="18" height="18" fill="#F97316" transform="rotate(45 97 87)"/>
    </g>
  </g>
</svg>
