<?xml version="1.0" encoding="UTF-8"?>
<svg xmlns="http://www.w3.org/2000/svg" viewBox="0 0 251.04 251.04">
  <defs>
    <linearGradient id="sunGrad" x1="0" y1="0" x2="1" y2="1">
      <stop offset="0" stop-color="#FDE047"/>
      <stop offset="0.55" stop-color="#FB923C"/>
      <stop offset="1" stop-color="#EA580C"/>
    </linearGradient>
    <linearGradient id="hillBackGrad" x1="0" y1="0" x2="0" y2="1">
      <stop offset="0" stop-color="#22C55E"/>
      <stop offset="1" stop-color="#15803D"/>
    </linearGradient>
    <linearGradient id="hillFrontGrad" x1="0" y1="0" x2="0" y2="1">
      <stop offset="0" stop-color="#4ADE80"/>
      <stop offset="1" stop-color="#16A34A"/>
    </linearGradient>
    <clipPath id="squircleClip">
      <path d="m213.89,13.79h0c-57.48-18.39-119.26-18.39-176.74,0h0c-11.1,3.55-19.81,12.26-23.36,23.36h0c-18.39,57.48-18.39,119.26,0,176.74h0c3.55,11.11,12.26,19.81,23.36,23.36h0c57.48,18.39,119.26,18.39,176.74,0h0c11.1-3.55,19.81-12.26,23.36-23.36h0c18.39-57.48,18.39-119.26,0-176.74h0c-3.55-11.11-12.26-19.81-23.36-23.36Z"/>
    </clipPath>
  </defs>
  <path fill="#ffffff" d="m213.89,13.79h0c-57.48-18.39-119.26-18.39-176.74,0h0c-11.1,3.55-19.81,12.26-23.36,23.36h0c-18.39,57.48-18.39,119.26,0,176.74h0c3.55,11.11,12.26,19.81,23.36,23.36h0c57.48,18.39,119.26,18.39,176.74,0h0c11.1-3.55,19.81-12.26,23.36-23.36h0c18.39-57.48,18.39-119.26,0-176.74h0c-3.55-11.11-12.26-19.81-23.36-23.36Z"/>
  <g clip-path="url(#squircleClip)">
    <g transform="scale(1.569)">
      <circle cx="100" cy="45" r="28" fill="url(#sunGrad)"/>
      <ellipse cx="35" cy="150" rx="85" ry="48" fill="url(#hillBackGrad)"/>
      <ellipse cx="130" cy="158" rx="95" ry="46" fill="url(#hillFrontGrad)"/>
      <rect x="88" y="78" width="18" height="18" fill="#F97316" transform="rotate(45 97 87)"/>
    </g>
  </g>
</svg>
