<?xml version="1.0" encoding="UTF-8"?>
<svg xmlns="http://www.w3.org/2000/svg" viewBox="0 0 583 97">
  <defs>
    <linearGradient id="sunGrad" x1="0" y1="0" x2="1" y2="1">
      <stop offset="0" stop-color="#FDE047"/>
      <stop offset="0.55" stop-color="#FB923C"/>
      <stop offset="1" stop-color="#EA580C"/>
    </linearGradient>
    <linearGradient id="hillBackGrad" x1="0" y1="0" x2="0" y2="1">
      <stop offset="0" stop-color="#22C55E"/>
      <stop offset="1" stop-color="#15803D"/>
    </linearGradient>
    <linearGradient id="hillFrontGrad" x1="0" y1="0" x2="0" y2="1">
      <stop offset="0" stop-color="#4ADE80"/>
      <stop offset="1" stop-color="#16A34A"/>
    </linearGradient>
  </defs>
    <g transform="translate(0, 8.5) scale(0.7619047619047619)">
      <circle cx="58" cy="30" r="19" fill="url(#sunGrad)"/>
      <ellipse cx="35" cy="118" rx="105" ry="36" fill="url(#hillBackGrad)"/>
      <ellipse cx="150" cy="122" rx="110" ry="34" fill="url(#hillFrontGrad)"/>
      <rect x="66" y="54" width="15" height="15" fill="#F97316" transform="rotate(45 73.5 61.5)"/>
    </g>
    <g fill="#15803D">
      <path d="M220.07 32.150000000000006V26.225H232.895V68.0Q232.895 73.775 230.60750000000002 78.4625Q228.32 83.15 223.6325 85.92500000000001Q218.945 88.7 211.97 88.7Q202.67000000000002 88.7 196.895 84.3125Q191.12 79.925 190.29500000000002 72.425H202.97Q203.57 74.825 205.82 76.2125Q208.07 77.60000000000001 211.37 77.60000000000001Q215.345 77.60000000000001 217.70749999999998 75.3125Q220.07 73.025 220.07 68.0V62.075Q218.195 65.0 214.89499999999998 66.8375Q211.595 68.675 207.17000000000002 68.675Q201.995 68.675 197.79500000000002 66.0125Q193.595 63.35 191.1575 58.4375Q188.72 53.525000000000006 188.72 47.075Q188.72 40.625 191.1575 35.75Q193.595 30.875000000000007 197.79500000000002 28.250000000000007Q201.995 25.625000000000007 207.17000000000002 25.625000000000007Q211.595 25.625000000000007 214.9325 27.425000000000004Q218.27 29.225 220.07 32.150000000000006ZM210.92000000000002 36.800000000000004Q207.095 36.800000000000004 204.4325 39.53750000000001Q201.77 42.275000000000006 201.77 47.075Q201.77 51.875 204.4325 54.6875Q207.095 57.5 210.92000000000002 57.5Q214.745 57.5 217.4075 54.725Q220.07 51.95 220.07 47.150000000000006Q220.07 42.35000000000001 217.4075 39.575Q214.745 36.800000000000004 210.92000000000002 36.800000000000004Z"/>
      <path d="M268.14500000000004 25.775000000000006V39.35000000000001H264.62Q259.82 39.35000000000001 257.42 41.41250000000001Q255.02 43.47500000000001 255.02 48.650000000000006V68.075H242.19500000000002V26.225H255.02V33.2Q257.27000000000004 29.750000000000007 260.64500000000004 27.762500000000006Q264.02000000000004 25.775000000000006 268.14500000000004 25.775000000000006Z"/>
      <path d="M313.52000000000004 50.22500000000001H284.49500000000006Q284.795 54.125 287.00750000000005 56.1875Q289.22 58.25 292.44500000000005 58.25Q297.24500000000006 58.25 299.12000000000006 54.2H312.77000000000004Q311.72 58.325 308.9825000000001 61.625Q306.24500000000006 64.925 302.12000000000006 66.8Q297.99500000000006 68.675 292.89500000000004 68.675Q286.74500000000006 68.675 281.94500000000005 66.05Q277.14500000000004 63.425000000000004 274.44500000000005 58.550000000000004Q271.74500000000006 53.675000000000004 271.74500000000006 47.150000000000006Q271.74500000000006 40.625 274.4075 35.75Q277.07000000000005 30.875000000000007 281.87 28.250000000000007Q286.67 25.625000000000007 292.89500000000004 25.625000000000007Q298.97 25.625000000000007 303.69500000000005 28.175000000000004Q308.42 30.725 311.08250000000004 35.45Q313.74500000000006 40.175000000000004 313.74500000000006 46.47500000000001Q313.74500000000006 48.275000000000006 313.52000000000004 50.22500000000001ZM300.62000000000006 43.10000000000001Q300.62000000000006 39.800000000000004 298.37000000000006 37.85000000000001Q296.12000000000006 35.900000000000006 292.74500000000006 35.900000000000006Q289.52000000000004 35.900000000000006 287.3075 37.775000000000006Q285.095 39.650000000000006 284.57000000000005 43.10000000000001Z"/>
      <path d="M359.72 50.22500000000001H330.69500000000005Q330.995 54.125 333.2075 56.1875Q335.42 58.25 338.64500000000004 58.25Q343.44500000000005 58.25 345.32000000000005 54.2H358.97Q357.92 58.325 355.1825 61.625Q352.44500000000005 64.925 348.32000000000005 66.8Q344.19500000000005 68.675 339.095 68.675Q332.94500000000005 68.675 328.14500000000004 66.05Q323.345 63.425000000000004 320.64500000000004 58.550000000000004Q317.94500000000005 53.675000000000004 317.94500000000005 47.150000000000006Q317.94500000000005 40.625 320.6075000000001 35.75Q323.27000000000004 30.875000000000007 328.07000000000005 28.250000000000007Q332.87 25.625000000000007 339.095 25.625000000000007Q345.17 25.625000000000007 349.895 28.175000000000004Q354.62 30.725 357.2825 35.45Q359.94500000000005 40.175000000000004 359.94500000000005 46.47500000000001Q359.94500000000005 48.275000000000006 359.72 50.22500000000001ZM346.82000000000005 43.10000000000001Q346.82000000000005 39.800000000000004 344.57000000000005 37.85000000000001Q342.32000000000005 35.900000000000006 338.94500000000005 35.900000000000006Q335.72 35.900000000000006 333.50750000000005 37.775000000000006Q331.295 39.650000000000006 330.77000000000004 43.10000000000001Z"/>
      <path d="M408.32 43.625V68.075H395.57V45.35000000000001Q395.57 41.150000000000006 393.395 38.825Q391.22 36.5 387.545 36.5Q383.87 36.5 381.69500000000005 38.825Q379.52000000000004 41.150000000000006 379.52000000000004 45.35000000000001V68.075H366.695V26.225H379.52000000000004V31.775000000000006Q381.47 29.000000000000007 384.77 27.387500000000006Q388.07 25.775000000000006 392.195 25.775000000000006Q399.545 25.775000000000006 403.9325 30.537500000000005Q408.32 35.300000000000004 408.32 43.625Z"/>
    </g>
    <g fill="#F97316">
      <path d="M438.245 36.875H431.345V68.075H418.52000000000004V36.875H413.87V26.225H418.52000000000004V25.025000000000006Q418.52000000000004 17.300000000000004 422.94500000000005 13.287500000000005Q427.37 9.275000000000006 435.92 9.275000000000006Q437.345 9.275000000000006 438.02000000000004 9.350000000000009V20.225Q434.345 20.000000000000007 432.845 21.275000000000006Q431.345 22.550000000000004 431.345 25.85V26.225H438.245Z"/>
      <path d="M443.045 14.975000000000001Q443.045 11.975000000000001 445.1825 9.987500000000004Q447.32000000000005 8.000000000000007 450.69500000000005 8.000000000000007Q453.995 8.000000000000007 456.13250000000005 9.987500000000004Q458.27000000000004 11.975000000000001 458.27000000000004 14.975000000000001Q458.27000000000004 17.900000000000006 456.13250000000005 19.887500000000006Q453.995 21.875000000000007 450.69500000000005 21.875000000000007Q447.32000000000005 21.875000000000007 445.1825 19.887500000000006Q443.045 17.900000000000006 443.045 14.975000000000001ZM457.07000000000005 26.225V68.075H444.245V26.225Z"/>
      <path d="M505.595 50.22500000000001H476.57000000000005Q476.87 54.125 479.0825 56.1875Q481.295 58.25 484.52000000000004 58.25Q489.32000000000005 58.25 491.19500000000005 54.2H504.845Q503.795 58.325 501.0575 61.625Q498.32000000000005 64.925 494.19500000000005 66.8Q490.07000000000005 68.675 484.97 68.675Q478.82000000000005 68.675 474.02000000000004 66.05Q469.22 63.425000000000004 466.52000000000004 58.550000000000004Q463.82000000000005 53.675000000000004 463.82000000000005 47.150000000000006Q463.82000000000005 40.625 466.4825000000001 35.75Q469.14500000000004 30.875000000000007 473.94500000000005 28.250000000000007Q478.745 25.625000000000007 484.97 25.625000000000007Q491.045 25.625000000000007 495.77 28.175000000000004Q500.495 30.725 503.1575 35.45Q505.82000000000005 40.175000000000004 505.82000000000005 46.47500000000001Q505.82000000000005 48.275000000000006 505.595 50.22500000000001ZM492.69500000000005 43.10000000000001Q492.69500000000005 39.800000000000004 490.44500000000005 37.85000000000001Q488.19500000000005 35.900000000000006 484.82000000000005 35.900000000000006Q481.595 35.900000000000006 479.38250000000005 37.775000000000006Q477.17 39.650000000000006 476.64500000000004 43.10000000000001Z"/>
      <path d="M525.395 12.575000000000003V68.075H512.57V12.575000000000003Z"/>
      <path d="M550.595 25.625000000000007Q554.72 25.625000000000007 558.1325 27.350000000000005Q561.5450000000001 29.075000000000003 563.4950000000001 32.00000000000001V12.575000000000003H576.32V68.075H563.4950000000001V62.075Q561.695 65.075 558.3575000000001 66.875Q555.0200000000001 68.675 550.595 68.675Q545.4200000000001 68.675 541.22 66.0125Q537.0200000000001 63.35 534.5825000000001 58.4375Q532.1450000000001 53.525000000000006 532.1450000000001 47.075Q532.1450000000001 40.625 534.5825000000001 35.75Q537.0200000000001 30.875000000000007 541.22 28.250000000000007Q545.4200000000001 25.625000000000007 550.595 25.625000000000007ZM554.345 36.800000000000004Q550.5200000000001 36.800000000000004 547.8575000000001 39.53750000000001Q545.195 42.275000000000006 545.195 47.075Q545.195 51.875 547.8575000000001 54.6875Q550.5200000000001 57.5 554.345 57.5Q558.1700000000001 57.5 560.8325000000001 54.725Q563.4950000000001 51.95 563.4950000000001 47.150000000000006Q563.4950000000001 42.35000000000001 560.8325000000001 39.575Q558.1700000000001 36.800000000000004 554.345 36.800000000000004Z"/>
    </g>
</svg>
